<svg width="25" height="24" fill="none" xmlns="http://www.w3.org/2000/svg"><g clip-path="url(#clip0_430_1304)" fill="#000"><path d="M23.75 17.25A.75.75 0 0023 18c0 2.48-2.019 4.5-4.5 4.5A4.505 4.505 0 0114 18c0-2.481 2.019-4.5 4.5-4.5a4.47 4.47 0 012.811 1H20.25a.75.75 0 100 1.5h2.5a.75.75 0 00.75-.75v-2.5a.75.75 0 10-1.5 0v.39A5.975 5.975 0 0018.5 12c-3.309 0-6 2.69-6 6 0 3.309 2.691 6 6 6s6-2.691 6-6a.75.75 0 00-.75-.75zM13.94 1.59L4.86 6.17 1.25 4.42 10.17.08c.2-.1.44-.1.65 0l3.12 1.51zm5.81 2.83l-9.24 4.51-3.46-1.68-.5-.25 9.09-4.58.5.25 3.61 1.75zm-9.98 5.81l-.01 9.49-8.85-4.55a.76.76 0 01-.41-.67V5.72l3.75 1.82v3.2c0 .41.34.75.75.75s.75-.34.75-.75V8.28l.5.24 3.52 1.71z"/><path d="M20.51 10.26c-.65-.17-1.33-.26-2.01-.26-3.19 0-5.95 1.88-7.23 4.59v-4.37l9.23-4.49c.01 1.09.01 3.52.01 4.53z"/></g><defs><clipPath id="clip0_430_1304"><path fill="#fff" transform="translate(.5)" d="M0 0h24v24H0z"/></clipPath></defs></svg>