<svg width="25" height="24" fill="none" xmlns="http://www.w3.org/2000/svg"><g clip-path="url(#clip0_430_1309)" fill="#000"><path d="M10.063 8.25c0 .319.243.563.562.563h3.563a.552.552 0 00.562-.563.552.552 0 00-.563-.563h-3.562a.552.552 0 00-.563.563z"/><path d="M24.069 8.156L12.819.281a.565.565 0 00-.638 0L.931 8.156a.586.586 0 00-.244.469V23.25c0 .319.244.563.563.563h22.5a.552.552 0 00.563-.563V8.625a.586.586 0 00-.244-.469zM11.938 22.125a.552.552 0 01-.563.563H8a.552.552 0 01-.563-.563V18.75c0-.319.244-.563.563-.563h.938c.112 0 .187.075.187.188v.75c0 .319 1.125.319 1.125 0v-.75c0-.113.075-.188.188-.188h.937c.319 0 .563.244.563.563v3.375zm1.124-8.438v-.75c0-.112.075-.187.188-.187h.938c.318 0 .562.244.562.563v3.374a.552.552 0 01-.563.563h-3.374a.552.552 0 01-.563-.563v-3.375c0-.318.244-.562.563-.562h.937c.113 0 .188.075.188.188v.75c0 .318 1.124.318 1.124 0zm4.5 8.438a.552.552 0 01-.562.563h-3.375a.552.552 0 01-.563-.563V18.75c0-.319.244-.563.563-.563h.938c.112 0 .187.075.187.188v.75c0 .319 1.125.319 1.125 0v-.75c0-.113.075-.188.188-.188H17c.319 0 .563.244.563.563v3.375zm5.625.563h-2.625V11.811A.552.552 0 0020 11.25H5a.552.552 0 00-.563.563v10.875H1.813V8.925L12.5 1.444l10.688 7.481v13.762z"/></g><defs><clipPath id="clip0_430_1309"><path fill="#fff" transform="translate(.5)" d="M0 0h24v24H0z"/></clipPath></defs></svg>