<svg width="25" height="24" fill="none" xmlns="http://www.w3.org/2000/svg"><path d="M20.428 6.83a.998.998 0 00-.802-.407h-5.047a.34.34 0 01-.337-.332V5.02A1.03 1.03 0 0013.207 4H9.325c-.156 0-.26.153-.181.306a4.53 4.53 0 01.465 2.703c-.258 2.04-1.915 3.672-3.985 3.978a4.548 4.548 0 01-3.288-.765c-.155-.102-.336 0-.336.179v6.579c0 .561.466 1.02 1.035 1.02h.829c.129 0 .232-.102.258-.23.13-1.785 1.63-3.187 3.469-3.187 1.837 0 3.338 1.402 3.468 3.187 0 .128.103.23.259.23h2.484c.13 0 .233-.102.26-.23.129-1.785 1.63-3.187 3.467-3.187 1.838 0 3.34 1.402 3.469 3.187 0 .128.103.23.258.23h1.76a.976.976 0 00.984-.969v-4.794a.909.909 0 00-.181-.561l-3.39-4.845zm1.165 5.636a.312.312 0 01-.31.306h-5.074a.297.297 0 01-.31-.306V8.565c0-.179.13-.306.31-.306h2.9a.32.32 0 01.258.127l2.174 2.907c.052.051.052.128.052.179v.994z" fill="#000"/><path d="M7.325 15.783c-1.464 0-2.64 1.162-2.64 2.609 0 1.446 1.176 2.608 2.64 2.608 1.463 0 2.64-1.162 2.64-2.608 0-1.447-1.203-2.609-2.64-2.609zm0 3.745c-.628 0-1.15-.516-1.15-1.136 0-.62.496-1.137 1.15-1.137.627 0 1.15.517 1.15 1.137-.027.62-.523 1.136-1.15 1.136zm10.035-3.745c-1.463 0-2.64 1.162-2.64 2.609 0 1.446 1.177 2.608 2.64 2.608 1.464 0 2.64-1.162 2.64-2.608 0-1.447-1.176-2.609-2.64-2.609zm0 3.745c-.627 0-1.15-.516-1.15-1.136 0-.62.497-1.137 1.15-1.137.628 0 1.15.517 1.15 1.137s-.522 1.136-1.15 1.136zM1 6.668c0 .774.261 1.497.68 2.091.653.93 1.75 1.524 3.005 1.524 2.012 0 3.685-1.627 3.685-3.642 0-.93-.366-1.782-.94-2.427A3.658 3.658 0 004.71 3C2.646 3.026 1 4.653 1 6.667zm3.32-1.886c0-.18.156-.362.365-.362.21 0 .366.155.366.362v1.42c0 .052.026.078.078.078h.758c.21 0 .366.155.366.361a.355.355 0 01-.366.362H4.424c-.053 0-.079-.026-.079-.078V4.782H4.32z" fill="#000"/></svg>