<svg width="65" height="64" fill="none" xmlns="http://www.w3.org/2000/svg"><g clip-path="url(#clip0_1108_19878)" fill-rule="evenodd" clip-rule="evenodd"><path d="M53.09 7.699l-5.655 5.656c-2.213 2.649-9.854 9.44-11.992 12.051-1.229 1.495-3.026 2.838-3.915 4.106-1.154-.265-9.495-5.562-11.367-6.584-1.286 1.476-3.197 3.481-4.294 5.051L32.04 44.211c.719-.265 4.52-5.41 5.126-6.13 2.156-2.535 14.034-17.858 15.282-19.05.36-.681.795-1.079 1.268-1.703.473-.586.775-.965 1.305-1.627l1.286-1.627c.265-.34.397-.53.643-.832.057-.057.322-.36.34-.36.284-.283.095-.113.284-.264.322-.644 1.154-1.57 1.57-2.1l4.956-6.32C63.06 3.196 61.49.983 60.26.528l-7.168 7.17z" fill="#0E9D58"/><path d="M32.188 63.999c0-1.552-.208-6.867.132-7.965C18.626 55.845 8.412 45.61 8.167 31.97l-7.963.02C.109 49.677 14.54 63.96 32.188 63.998z" fill="#4285F4"/><path d="M.203 31.991l7.963-.019c.284-13.356 9.95-23.099 22.868-23.988h1.154V0C14.578 0 .127 14.36.203 31.991z" fill="#DB4437"/><path d="M41.84 54.068l4.464 4.408c.85.87.87 1.154 1.607 1.287 1.684-.398 5.259-3.595 6.337-4.578 1.645-1.476 3.537-3.784 4.955-6.016 2.95-4.692 4.956-10.367 4.975-17.178l-7.963.038c-.227 8.986-4.407 16.023-11.425 20.45-.889.549-2.156 1.04-2.95 1.59z" fill="#0C7E46"/><path d="M31.055 7.984c3.196-.152 6.582.397 9.324 1.4 3.121 1.153 4.88 2.44 7.093 3.972L53.128 7.7c-.757-.492-1.249-.984-2.024-1.533C45.581 2.195 39.32 0 32.209 0v7.984h-1.154z" fill="#F3B400"/><path d="M52.473 19.032c.889 1.873 1.872 3.235 2.629 5.618.756 2.422 1.078 4.654 1.135 7.379l7.962-.038c-.018-3.897-.68-7.662-1.948-11.03-.889-2.345-3.196-7.094-4.653-8.343-.189.152 0-.018-.283.265-.02 0-.284.303-.34.36-.247.303-.379.492-.644.832-.435.549-.851 1.079-1.286 1.627-.53.662-.832 1.04-1.305 1.627-.473.624-.908 1.022-1.267 1.703z" fill="#C39000"/><path d="M32.324 56.035c-.34 1.098-.132 6.414-.132 7.965 3.064 0 5.901-.416 8.7-1.192 1.949-.53 5.902-1.835 7.037-3.046-.738-.132-.757-.416-1.608-1.286l-4.464-4.408-.284.038c-1.91 1.21-6.62 1.873-9.249 1.93z" fill="#0E9D58"/></g><defs><clipPath id="clip0_1108_19878"><path fill="#fff" transform="translate(.203)" d="M0 0h63.998v64H0z"/></clipPath></defs></svg>