<svg width="25" height="24" fill="none" xmlns="http://www.w3.org/2000/svg"><path d="M22.5 10.055v8.013c0 2.502-2.023 4.537-4.511 4.537h-2.683A1.929 1.929 0 0113.459 24h-1.653c-.51 0-.992-.204-1.36-.571a1.93 1.93 0 011.36-3.294h1.653a1.928 1.928 0 011.847 1.379h2.683c1.89 0 3.43-1.547 3.43-3.449v-.522c-.112.033-.23.049-.355.049h-2.367c-.716 0-1.3-.587-1.3-1.308V10.15c0-.721.584-1.309 1.3-1.309h2.367c.095 0 .186.011.276.03-.576-4.387-4.32-7.784-8.839-7.784-4.51 0-8.251 3.386-8.838 7.762.046-.005.092-.008.138-.008h2.366c.717 0 1.301.588 1.301 1.308v6.136c0 .721-.584 1.309-1.3 1.309H3.8a1.307 1.307 0 01-1.301-1.308V10.15c0-.033 0-.063.003-.096H2.5c0-1.351.265-2.665.79-3.905a10.073 10.073 0 012.147-3.196A10.01 10.01 0 018.615.794 9.839 9.839 0 0112.5 0c1.345 0 2.65.267 3.884.794a10.012 10.012 0 013.178 2.16 10.052 10.052 0 012.937 7.101z" fill="#000"/></svg>