<svg width="20" height="21" fill="none" xmlns="http://www.w3.org/2000/svg"><path d="M15.666 8.29a2.89 2.89 0 00-2.308 1.16 2.888 2.888 0 00-2.308-1.16 2.893 2.893 0 00-2.884 2.9c0 .617.1 1.192.267 1.717.817 2.592 3.35 4.15 4.6 4.575.175.059.467.059.642 0 1.25-.425 3.783-1.975 4.6-4.575.175-.533.267-1.1.267-1.716a2.88 2.88 0 00-2.876-2.9z" fill="#292D32"/><path d="M17.291 6.983c0 .191-.191.316-.375.266a4.009 4.009 0 00-3.291.617.513.513 0 01-.608 0 3.874 3.874 0 00-2.3-.75c-2.15 0-3.9 1.758-3.9 3.925 0 2.35 1.124 4.108 2.258 5.283.058.059.008.159-.067.125-2.275-.775-7.341-3.991-7.341-9.466 0-2.417 1.941-4.367 4.341-4.367 1.425 0 2.683.683 3.475 1.742a4.348 4.348 0 013.475-1.742c2.392 0 4.333 1.95 4.333 4.367z" fill="#292D32"/></svg>