<svg width="24" height="25" viewBox="0 0 24 25" fill="none" xmlns="http://www.w3.org/2000/svg">
<g clip-path="url(#clip0_6754_53113)">
<path d="M14.8951 19.4603C14.8038 19.4603 14.7146 19.4332 14.6387 19.3825C14.5628 19.3318 14.5037 19.2597 14.4687 19.1754C14.4338 19.091 14.4247 18.9982 14.4425 18.9087C14.4603 18.8192 14.5042 18.737 14.5688 18.6724C14.6333 18.6079 14.7156 18.5639 14.8051 18.5461C14.8946 18.5283 14.9874 18.5374 15.0717 18.5724C15.1561 18.6073 15.2281 18.6664 15.2789 18.7423C15.3296 18.8182 15.3566 18.9075 15.3566 18.9988C15.3566 19.1212 15.308 19.2385 15.2215 19.3251C15.1349 19.4116 15.0175 19.4603 14.8951 19.4603Z" fill="black"/>
<path d="M23.5394 7.14948H21.3717C21.2493 7.14948 21.1319 7.10086 21.0453 7.01431C20.9588 6.92775 20.9102 6.81036 20.9102 6.68796C20.9102 6.56556 20.9588 6.44817 21.0453 6.36162C21.1319 6.27506 21.2493 6.22644 21.3717 6.22644H23.5394C23.6618 6.22644 23.7792 6.27506 23.8657 6.36162C23.9523 6.44817 24.0009 6.56556 24.0009 6.68796C24.0009 6.81036 23.9523 6.92775 23.8657 7.01431C23.7792 7.10086 23.6618 7.14948 23.5394 7.14948Z" fill="black"/>
<path d="M23.5394 10.8621H21.3717C21.2493 10.8621 21.1319 10.8135 21.0453 10.727C20.9588 10.6404 20.9102 10.523 20.9102 10.4006C20.9102 10.2782 20.9588 10.1608 21.0453 10.0743C21.1319 9.98771 21.2493 9.93909 21.3717 9.93909H23.5394C23.6618 9.93909 23.7792 9.98771 23.8657 10.0743C23.9523 10.1608 24.0009 10.2782 24.0009 10.4006C24.0009 10.523 23.9523 10.6404 23.8657 10.727C23.7792 10.8135 23.6618 10.8621 23.5394 10.8621Z" fill="black"/>
<path d="M23.5394 14.5748H21.3717C21.2493 14.5748 21.1319 14.5262 21.0453 14.4396C20.9588 14.353 20.9102 14.2357 20.9102 14.1133C20.9102 13.9909 20.9588 13.8735 21.0453 13.7869C21.1319 13.7004 21.2493 13.6517 21.3717 13.6517H23.5394C23.6618 13.6517 23.7792 13.7004 23.8657 13.7869C23.9523 13.8735 24.0009 13.9909 24.0009 14.1133C24.0009 14.2357 23.9523 14.353 23.8657 14.4396C23.7792 14.5262 23.6618 14.5748 23.5394 14.5748Z" fill="black"/>
<path d="M22.4554 9.00568H21.3717C21.2493 9.00568 21.1319 8.95706 21.0453 8.87051C20.9588 8.78396 20.9102 8.66657 20.9102 8.54416C20.9102 8.42176 20.9588 8.30437 21.0453 8.21782C21.1319 8.13127 21.2493 8.08264 21.3717 8.08264H22.4554C22.5778 8.08264 22.6952 8.13127 22.7817 8.21782C22.8683 8.30437 22.9169 8.42176 22.9169 8.54416C22.9169 8.66657 22.8683 8.78396 22.7817 8.87051C22.6952 8.95706 22.5778 9.00568 22.4554 9.00568Z" fill="black"/>
<path d="M22.4554 12.7183H21.3717C21.2493 12.7183 21.1319 12.6697 21.0453 12.5832C20.9588 12.4966 20.9102 12.3792 20.9102 12.2568C20.9102 12.1344 20.9588 12.017 21.0453 11.9305C21.1319 11.8439 21.2493 11.7953 21.3717 11.7953H22.4554C22.5778 11.7953 22.6952 11.8439 22.7817 11.9305C22.8683 12.017 22.9169 12.1344 22.9169 12.2568C22.9169 12.3792 22.8683 12.4966 22.7817 12.5832C22.6952 12.6697 22.5778 12.7183 22.4554 12.7183Z" fill="black"/>
<path d="M18.2138 22.0534C16.0712 22.0534 14.3281 20.3103 14.3281 18.168C14.3281 18.0526 14.3333 17.9396 14.3428 17.8291V17.8216C14.3483 17.757 14.3561 17.6903 14.3659 17.6179C14.4485 17.0376 14.6616 16.4835 14.989 15.9973C15.3164 15.511 15.7497 15.1053 16.2564 14.8104V8.85625C16.2564 8.85307 16.2564 8.85019 16.2564 8.84731V7.06555C16.2564 7.06266 16.2564 7.05978 16.2564 7.0566V4.9039C16.256 4.48291 16.3927 4.07324 16.6458 3.73682L16.6493 3.73221C16.8952 3.40296 17.2386 3.15951 17.6306 3.03644C18.0227 2.91336 18.4436 2.9169 18.8336 3.04656C19.2235 3.17622 19.5627 3.4254 19.8031 3.75874C20.0434 4.09209 20.1726 4.49266 20.1724 4.90361V14.8102C20.7592 15.1525 21.2459 15.6428 21.5841 16.2319C21.9223 16.8211 22.1001 17.4887 22.0999 18.168C22.0999 20.3103 20.3565 22.0534 18.2138 22.0534ZM15.2639 17.894V17.9032C15.2561 17.9898 15.252 18.078 15.252 18.1677C15.2522 18.6968 15.394 19.2163 15.6627 19.672C15.9315 20.1278 16.3174 20.5033 16.7803 20.7595C17.2432 21.0157 17.7663 21.1433 18.2953 21.1289C18.8242 21.1146 19.3396 20.9589 19.788 20.678C20.2364 20.3971 20.6014 20.0012 20.845 19.5316C21.0887 19.0619 21.2022 18.5356 21.1737 18.0072C21.1451 17.4789 20.9756 16.9679 20.6828 16.5272C20.3899 16.0865 19.9844 15.7323 19.5084 15.5013C19.4306 15.4634 19.3649 15.4044 19.319 15.331C19.2731 15.2576 19.2488 15.1728 19.2488 15.0862V4.9039C19.249 4.68638 19.1806 4.47434 19.0532 4.298C18.9259 4.12167 18.7461 3.99004 18.5395 3.92188C18.333 3.85372 18.1102 3.8525 17.9029 3.91841C17.6956 3.98432 17.5144 4.11398 17.3851 4.28892L17.3828 4.29209C17.2513 4.469 17.1804 4.68372 17.1809 4.90418V7.04824V7.05718V8.85654V8.86548V15.0865C17.1809 15.1724 17.1569 15.2567 17.1116 15.3297C17.0663 15.4027 17.0015 15.4617 16.9245 15.4998L16.9115 15.5065C16.4777 15.7185 16.1024 16.0335 15.8182 16.4239C15.5341 16.8143 15.3498 17.2683 15.2815 17.7463C15.2737 17.7985 15.2679 17.8475 15.2639 17.894Z" fill="black"/>
<path d="M18.2133 20.3138C17.8212 20.3139 17.4378 20.1976 17.1118 19.9798C16.7857 19.762 16.5316 19.4524 16.3815 19.0902C16.2314 18.7279 16.1921 18.3293 16.2685 17.9447C16.345 17.5601 16.5338 17.2068 16.811 16.9295C17.0883 16.6522 17.4415 16.4634 17.8261 16.3869C18.2107 16.3104 18.6093 16.3496 18.9716 16.4996C19.3339 16.6497 19.6435 16.9038 19.8614 17.2298C20.0792 17.5558 20.1955 17.9392 20.1955 18.3313C20.1949 18.8568 19.9859 19.3607 19.6143 19.7324C19.2427 20.104 18.7388 20.3131 18.2133 20.3138ZM18.2133 17.2718C18.0037 17.2717 17.7989 17.3338 17.6246 17.4502C17.4503 17.5666 17.3145 17.732 17.2342 17.9256C17.154 18.1192 17.133 18.3323 17.1738 18.5378C17.2147 18.7433 17.3156 18.9321 17.4637 19.0803C17.6119 19.2285 17.8007 19.3295 18.0062 19.3704C18.2117 19.4113 18.4248 19.3903 18.6184 19.3101C18.812 19.23 18.9775 19.0942 19.0939 18.9199C19.2103 18.7457 19.2725 18.5408 19.2725 18.3313C19.2721 18.0505 19.1604 17.7812 18.9618 17.5826C18.7633 17.384 18.4941 17.2723 18.2133 17.2718Z" fill="black"/>
<path d="M18.2115 17.2715C18.0891 17.2715 17.9717 17.2229 17.8852 17.1363C17.7986 17.0498 17.75 16.9324 17.75 16.81V6.68796C17.75 6.56556 17.7986 6.44817 17.8852 6.36162C17.9717 6.27506 18.0891 6.22644 18.2115 6.22644C18.3339 6.22644 18.4513 6.27506 18.5379 6.36162C18.6244 6.44817 18.673 6.56556 18.673 6.68796V16.81C18.673 16.9324 18.6244 17.0498 18.5379 17.1363C18.4513 17.2229 18.3339 17.2715 18.2115 17.2715Z" fill="black"/>
<path d="M7.48886 19.9897C7.36646 19.9897 7.24907 19.941 7.16252 19.8545C7.07597 19.7679 7.02734 19.6505 7.02734 19.5281V13.9864C7.02734 13.864 7.07597 13.7466 7.16252 13.6601C7.24907 13.5735 7.36646 13.5249 7.48886 13.5249C7.61127 13.5249 7.72866 13.5735 7.81521 13.6601C7.90176 13.7466 7.95039 13.864 7.95039 13.9864V19.5281C7.95039 19.6505 7.90176 19.7679 7.81521 19.8545C7.72866 19.941 7.61127 19.9897 7.48886 19.9897Z" fill="black"/>
<path d="M7.48886 11.4751C7.36646 11.4751 7.24907 11.4265 7.16252 11.34C7.07597 11.2534 7.02734 11.136 7.02734 11.0136V5.4719C7.02734 5.34949 7.07597 5.2321 7.16252 5.14555C7.24907 5.059 7.36646 5.01038 7.48886 5.01038C7.61127 5.01038 7.72866 5.059 7.81521 5.14555C7.90176 5.2321 7.95039 5.34949 7.95039 5.4719V11.0136C7.95039 11.136 7.90176 11.2534 7.81521 11.34C7.72866 11.4265 7.61127 11.4751 7.48886 11.4751Z" fill="black"/>
<path d="M7.48871 9.24659C7.41356 9.2465 7.33956 9.22806 7.27316 9.19287C7.20675 9.15768 7.14994 9.10681 7.10767 9.04467L4.83929 5.73268C4.77192 5.63167 4.74706 5.50817 4.77012 5.38895C4.79317 5.26974 4.86228 5.16441 4.96246 5.0958C5.06264 5.02719 5.18583 5.00083 5.30532 5.02242C5.42481 5.04402 5.53097 5.11183 5.6008 5.21116L7.48871 7.96818L9.37633 5.21116C9.41023 5.16035 9.45387 5.11676 9.50474 5.08294C9.5556 5.04912 9.61268 5.02573 9.67265 5.01413C9.73262 5.00254 9.7943 5.00296 9.85411 5.01538C9.91392 5.02779 9.97066 5.05196 10.0211 5.08648C10.0715 5.12099 10.1145 5.16517 10.1477 5.21644C10.1809 5.26772 10.2036 5.32507 10.2144 5.38518C10.2253 5.44529 10.2241 5.50696 10.211 5.56661C10.1978 5.62626 10.173 5.68271 10.1378 5.73268L7.86947 9.04583C7.82709 9.10771 7.77027 9.15833 7.70393 9.19331C7.63758 9.2283 7.56371 9.24658 7.48871 9.24659Z" fill="black"/>
<path d="M9.76015 19.9893C9.68494 19.9893 9.61089 19.9709 9.54443 19.9357C9.47797 19.9005 9.42111 19.8496 9.37881 19.7874L7.49119 17.0307L5.60328 19.7886C5.56939 19.8394 5.52574 19.883 5.47488 19.9168C5.42401 19.9506 5.36694 19.974 5.30697 19.9856C5.24699 19.9972 5.18532 19.9968 5.12551 19.9844C5.0657 19.972 5.00895 19.9478 4.95855 19.9133C4.90816 19.8788 4.86511 19.8346 4.83192 19.7833C4.79872 19.732 4.77603 19.6747 4.76517 19.6146C4.75431 19.5545 4.75548 19.4928 4.76863 19.4331C4.78178 19.3735 4.80664 19.317 4.84177 19.2671L7.11015 15.9542C7.15252 15.8923 7.20936 15.8416 7.27573 15.8066C7.3421 15.7716 7.41601 15.7533 7.49105 15.7533C7.56609 15.7533 7.64 15.7716 7.70637 15.8066C7.77274 15.8416 7.82957 15.8923 7.87195 15.9542L10.1403 19.2671C10.1875 19.3363 10.2148 19.4171 10.2195 19.5008C10.2242 19.5844 10.2061 19.6678 10.167 19.7419C10.1279 19.816 10.0694 19.8781 9.99774 19.9215C9.92606 19.9649 9.84393 19.9879 9.76015 19.9882V19.9893Z" fill="black"/>
<path d="M2.72967 18.5044C2.65264 18.5046 2.57681 18.4854 2.50908 18.4488C2.44135 18.4121 2.38388 18.359 2.3419 18.2945C2.29991 18.2299 2.27476 18.1558 2.26873 18.079C2.2627 18.0023 2.27599 17.9252 2.30738 17.8548L3.69194 14.756L0.417447 14.4445C0.356068 14.4402 0.296171 14.4236 0.241279 14.3958C0.186387 14.368 0.137609 14.3295 0.0978122 14.2826C0.0580155 14.2357 0.0280041 14.1813 0.00954331 14.1226C-0.0089175 14.0639 -0.015455 14.0021 -0.00968491 13.9408C-0.00391482 13.8796 0.0140464 13.8201 0.0431426 13.7659C0.0722387 13.7116 0.111882 13.6638 0.159742 13.6251C0.207601 13.5865 0.26271 13.5577 0.321827 13.5407C0.380945 13.5236 0.442877 13.5186 0.503982 13.5258L4.41653 13.8979C4.48944 13.9048 4.55965 13.929 4.62135 13.9685C4.68306 14.008 4.73448 14.0616 4.77137 14.1248C4.80827 14.1881 4.82957 14.2593 4.83352 14.3324C4.83748 14.4055 4.82397 14.4786 4.79411 14.5454L3.14994 18.2307C3.11373 18.312 3.0548 18.3811 2.98023 18.4296C2.90567 18.4782 2.81865 18.5042 2.72967 18.5044Z" fill="black"/>
<path d="M14.5203 11.4763C14.5056 11.4763 14.4914 11.4763 14.4761 11.4743L10.5636 11.1019C10.4905 11.0951 10.4202 11.0711 10.3583 11.0317C10.2964 10.9923 10.2448 10.9387 10.2077 10.8754C10.1707 10.8121 10.1493 10.7409 10.1452 10.6677C10.1412 10.5944 10.1547 10.5213 10.1846 10.4543L11.8287 6.76904C11.8811 6.66142 11.9732 6.57835 12.0856 6.53734C12.1981 6.49633 12.322 6.5006 12.4314 6.54925C12.5407 6.5979 12.6269 6.68712 12.6717 6.79808C12.7165 6.90905 12.7165 7.03309 12.6716 7.14403L11.2905 10.2437L14.5635 10.5552C14.6817 10.5663 14.791 10.6225 14.8689 10.7121C14.9467 10.8017 14.987 10.9179 14.9814 11.0364C14.9759 11.155 14.9248 11.2668 14.839 11.3487C14.7531 11.4306 14.6389 11.4763 14.5203 11.4763Z" fill="black"/>
<path d="M8.76703 12.2003C8.66588 12.2005 8.56748 12.1674 8.48695 12.1062C8.40642 12.045 8.34823 11.959 8.32132 11.8615C8.29441 11.764 8.30028 11.6604 8.33802 11.5666C8.37576 11.4727 8.44329 11.3939 8.53021 11.3421L13.1454 8.58946C13.2506 8.52681 13.3763 8.50849 13.495 8.53854C13.6136 8.56859 13.7155 8.64454 13.7781 8.7497C13.8408 8.85485 13.8591 8.98058 13.8291 9.09924C13.799 9.2179 13.7231 9.31976 13.6179 9.38241L9.00269 12.1351C8.93146 12.1777 8.85003 12.2002 8.76703 12.2003Z" fill="black"/>
<path d="M1.59516 16.4758C1.49401 16.4759 1.3956 16.4429 1.31507 16.3817C1.23454 16.3205 1.17635 16.2345 1.14944 16.137C1.12254 16.0395 1.1284 15.9359 1.16615 15.842C1.20389 15.7482 1.27141 15.6693 1.35834 15.6176L5.97355 12.8649C6.0787 12.8022 6.20445 12.7839 6.32314 12.8139C6.44182 12.8439 6.54372 12.9199 6.60641 13.025C6.6691 13.1302 6.68746 13.2559 6.65744 13.3746C6.62741 13.4933 6.55147 13.5952 6.44632 13.6579L1.83111 16.4106C1.75979 16.4532 1.67825 16.4757 1.59516 16.4758Z" fill="black"/>
<path d="M12.2516 18.5043C12.1622 18.5046 12.0746 18.4788 11.9996 18.4302C11.9245 18.3816 11.8652 18.3123 11.8288 18.2306L10.1846 14.5453C10.1547 14.4784 10.1412 14.4054 10.1452 14.3322C10.1492 14.2591 10.1705 14.1879 10.2074 14.1246C10.2444 14.0614 10.2958 14.0078 10.3576 13.9683C10.4193 13.9289 10.4895 13.9047 10.5625 13.8978L14.475 13.5257C14.5952 13.5172 14.714 13.5561 14.8059 13.6341C14.8978 13.712 14.9556 13.8228 14.9669 13.9428C14.9782 14.0628 14.9421 14.1824 14.8664 14.2761C14.7906 14.3699 14.6812 14.4302 14.5616 14.4444L11.2885 14.7559L12.6708 17.8547C12.7021 17.925 12.7154 18.002 12.7094 18.0787C12.7035 18.1553 12.6784 18.2293 12.6366 18.2939C12.5947 18.3584 12.5374 18.4115 12.4698 18.4482C12.4022 18.485 12.3266 18.5043 12.2496 18.5043H12.2516Z" fill="black"/>
<path d="M0.461665 11.4763C0.342987 11.4763 0.228855 11.4307 0.142978 11.3487C0.0571004 11.2668 0.00607798 11.155 0.000508872 11.0364C-0.00506023 10.9179 0.0352521 10.8018 0.113072 10.7122C0.190892 10.6226 0.300239 10.5664 0.418398 10.5553L3.69231 10.2438L2.30775 7.14522C2.26149 7.03399 2.26056 6.9091 2.30513 6.79719C2.34971 6.68529 2.43628 6.59525 2.54634 6.5463C2.6564 6.49735 2.78124 6.49337 2.8942 6.53521C3.00715 6.57705 3.09928 6.66139 3.15089 6.77023L4.79506 10.4555C4.82492 10.5224 4.83843 10.5954 4.83448 10.6685C4.83052 10.7417 4.80922 10.8128 4.77233 10.8761C4.73543 10.9394 4.68401 10.9929 4.6223 11.0324C4.5606 11.0719 4.49039 11.0961 4.41748 11.103L0.50551 11.4743C0.49051 11.4757 0.475799 11.4763 0.461665 11.4763Z" fill="black"/>
<path d="M6.21309 12.2004C6.13001 12.2003 6.04849 12.1777 5.97714 12.1352L1.36193 9.38249C1.30986 9.35144 1.26442 9.31045 1.2282 9.26185C1.19198 9.21324 1.16568 9.15798 1.15081 9.09921C1.13595 9.04044 1.1328 8.97933 1.14156 8.91934C1.15031 8.85936 1.1708 8.80169 1.20184 8.74963C1.23288 8.69756 1.27388 8.65212 1.32248 8.61589C1.37108 8.57967 1.42635 8.55338 1.48511 8.53851C1.54388 8.52364 1.605 8.5205 1.66498 8.52925C1.72496 8.53801 1.78263 8.55849 1.8347 8.58953L6.44991 11.3422C6.53684 11.3939 6.60436 11.4728 6.6421 11.5666C6.67985 11.6605 6.68571 11.7641 6.65881 11.8616C6.6319 11.9591 6.57371 12.0451 6.49318 12.1063C6.41265 12.1675 6.31424 12.2005 6.21309 12.2004Z" fill="black"/>
<path d="M13.3847 16.4758C13.3017 16.4757 13.2202 16.4532 13.149 16.4106L8.5338 13.6579C8.48174 13.6268 8.4363 13.5858 8.40007 13.5372C8.36385 13.4886 8.33756 13.4334 8.32269 13.3746C8.30782 13.3158 8.30468 13.2547 8.31343 13.1947C8.32219 13.1348 8.34267 13.0771 8.37371 13.025C8.40476 12.9729 8.44575 12.9275 8.49436 12.8913C8.54296 12.8551 8.59822 12.8288 8.65699 12.8139C8.71576 12.799 8.77687 12.7959 8.83686 12.8046C8.89684 12.8134 8.95451 12.8339 9.00658 12.8649L13.6218 15.6176C13.7087 15.6693 13.7763 15.7482 13.814 15.8421C13.8517 15.936 13.8576 16.0396 13.8306 16.1371C13.8037 16.2347 13.7455 16.3206 13.6649 16.3818C13.5843 16.443 13.4859 16.476 13.3847 16.4758Z" fill="black"/>
<path d="M7.49088 14.4479C7.10562 14.4479 6.72901 14.3337 6.40868 14.1197C6.08835 13.9056 5.83868 13.6014 5.69125 13.2455C5.54381 12.8895 5.50524 12.4979 5.5804 12.12C5.65556 11.7422 5.84108 11.3951 6.1135 11.1227C6.38592 10.8502 6.733 10.6647 7.11086 10.5896C7.48872 10.5144 7.88038 10.553 8.23631 10.7004C8.59224 10.8478 8.89646 11.0975 9.1105 11.4178C9.32454 11.7382 9.43878 12.1148 9.43878 12.5C9.43817 13.0165 9.23275 13.5116 8.86758 13.8767C8.50241 14.2419 8.00731 14.4473 7.49088 14.4479ZM7.49088 11.4752C7.28818 11.4752 7.09003 11.5353 6.92149 11.6479C6.75295 11.7605 6.62159 11.9206 6.54403 12.1078C6.46646 12.2951 6.44616 12.5012 6.4857 12.7C6.52525 12.8988 6.62286 13.0814 6.76619 13.2247C6.90952 13.3681 7.09213 13.4657 7.29094 13.5052C7.48974 13.5447 7.69581 13.5245 7.88308 13.4469C8.07035 13.3693 8.23041 13.238 8.34302 13.0694C8.45564 12.9009 8.51574 12.7027 8.51574 12.5C8.51544 12.2283 8.40736 11.9678 8.21523 11.7757C8.0231 11.5835 7.76259 11.4755 7.49088 11.4752Z" fill="black"/>
</g>
<defs>
<clipPath id="clip0_6754_53113">
<rect width="24" height="24" fill="white" transform="translate(0 0.5)"/>
</clipPath>
</defs>
</svg>
