<svg width="24" height="25" viewBox="0 0 24 25" fill="none" xmlns="http://www.w3.org/2000/svg">
<g clip-path="url(#clip0_6754_53277)">
<path d="M14.2863 5.04359C13.9891 4.75551 13.5169 4.75665 13.2212 5.04599C13.1547 5.11102 12.7189 5.54162 12.1011 6.23774C11.0054 3.33442 8.47731 0.847536 8.34102 0.715422C8.044 0.427348 7.57186 0.428294 7.27598 0.717668C7.10158 0.888171 3.00335 4.93906 3 8.69352C2.99768 11.2037 4.94431 13.27 7.41172 13.4737C6.91247 14.7431 6.5907 16.0595 6.58956 17.3498C6.58601 21.2824 9.7923 24.4902 13.7368 24.5H13.7555C15.6636 24.5 17.457 23.7601 18.8062 22.4154C20.1543 21.0722 20.8975 19.2851 20.8992 17.3835C20.9044 11.5294 14.5565 5.30576 14.2863 5.04359ZM7.8014 11.9678C5.99386 11.963 4.52468 10.4947 4.52637 8.69502C4.52862 6.30186 6.76191 3.53941 7.8111 2.37355C8.70378 3.36126 10.4444 5.50271 10.9391 7.62159C9.99911 8.80455 8.93817 10.3084 8.0987 11.9546C8.0006 11.9628 7.90183 11.9686 7.8014 11.9678ZM17.7288 21.3344C16.6675 22.3918 15.257 22.9739 13.7553 22.9737H13.7406C10.6364 22.9658 8.11317 20.4435 8.11596 17.3513V17.3511C8.11967 13.1417 12.259 8.30352 13.7568 6.69107C15.2526 8.29308 19.3767 13.099 19.3728 17.3822C19.3715 18.8756 18.7875 20.2792 17.7288 21.3344Z" fill="black"/>
<path d="M17.1484 16.8094H17.1479C16.8321 16.8094 16.5759 17.0655 16.5755 17.3815C16.5747 18.1325 16.2811 18.8385 15.7486 19.3692C15.2146 19.9015 14.5047 20.1942 13.7489 20.1942H13.7404C13.4249 20.1942 13.1687 20.4496 13.168 20.7653C13.1672 21.0815 13.4229 21.3383 13.7391 21.339H13.749C14.8097 21.339 15.8067 20.9276 16.5567 20.1801C17.3061 19.4333 17.7194 18.4396 17.7203 17.3824C17.7206 17.0662 17.4644 16.8098 17.1484 16.8094Z" fill="black"/>
</g>
<defs>
<clipPath id="clip0_6754_53277">
<rect width="24" height="24" fill="white" transform="translate(0 0.5)"/>
</clipPath>
</defs>
</svg>
