<svg width="20" height="20" viewBox="0 0 20 20" fill="none" xmlns="http://www.w3.org/2000/svg">
<path d="M18.3385 8.4158C18.4219 7.99913 18.0885 7.49913 17.6719 7.49913L12.9219 6.83247L10.7552 2.49913C10.6719 2.33247 10.5885 2.24913 10.4219 2.1658C10.0052 1.9158 9.50521 2.08247 9.25521 2.49913L7.17187 6.83247L2.42187 7.49913C2.17188 7.49913 2.00521 7.58247 1.92187 7.74913C1.58854 8.08247 1.58854 8.58247 1.92187 8.9158L5.33854 12.2491L4.50521 16.9991C4.50521 17.1658 4.50521 17.3325 4.58854 17.4991C4.83854 17.9158 5.33854 18.0825 5.75521 17.8325L10.0052 15.5825L14.2552 17.8325C14.3385 17.9158 14.5052 17.9158 14.6719 17.9158C14.7552 17.9158 14.7552 17.9158 14.8385 17.9158C15.2552 17.8325 15.5885 17.4158 15.5052 16.9158L14.6719 12.1658L18.0885 8.83247C18.2552 8.74913 18.3385 8.58247 18.3385 8.4158Z" fill="#E89806"/>
</svg>
