<svg width="24" height="25" viewBox="0 0 24 25" fill="none" xmlns="http://www.w3.org/2000/svg">
<g clip-path="url(#clip0_6754_53287)">
<path d="M16.9625 0.5H7.03438C5.96563 0.5 5.09375 1.37188 5.09375 2.44063V21.2938C5.09375 22.175 5.68437 22.9203 6.48594 23.1547V23.7219C6.48594 24.1484 6.83281 24.4953 7.25937 24.4953H9.03594C9.4625 24.4953 9.80938 24.1484 9.80938 23.7219V23.2344H14.1828V23.7219C14.1828 24.1484 14.5297 24.4953 14.9563 24.4953H16.7328C17.1594 24.4953 17.5062 24.1484 17.5062 23.7219V23.1547C18.3125 22.9156 18.8984 22.175 18.8984 21.2938V2.44063C18.9031 1.37188 18.0312 0.5 16.9625 0.5ZM7.03438 1.25H16.9578C17.6141 1.25 18.1484 1.78438 18.1484 2.44063V9.15781H5.84375V2.44063C5.84375 1.78438 6.37813 1.25 7.03438 1.25ZM9.06406 23.7266C9.06406 23.7406 9.05 23.75 9.04062 23.75H7.26406C7.25 23.75 7.24063 23.7359 7.24063 23.7266V23.2344H9.06406V23.7266ZM16.7328 23.75H14.9563C14.9422 23.75 14.9328 23.7359 14.9328 23.7266V23.2344H16.7563V23.7219C16.7609 23.7359 16.7469 23.75 16.7328 23.75ZM16.9625 22.4844H7.03438C6.37813 22.4844 5.84375 21.95 5.84375 21.2938V9.90781H18.1531V21.2938C18.1531 21.95 17.6187 22.4844 16.9625 22.4844Z" fill="black" stroke="black" stroke-width="0.2"/>
<path d="M7.37148 7.74683H8.25363C8.6 7.74683 8.88683 7.50308 8.88683 7.19839V3.20933C8.88683 2.90933 8.60541 2.66089 8.25363 2.66089H7.37148C7.02512 2.66089 6.73828 2.90464 6.73828 3.20933V7.20308C6.74369 7.50308 7.02512 7.74683 7.37148 7.74683ZM7.60961 3.41089H8.02092V6.99683H7.60961V3.41089Z" fill="black" stroke="black" stroke-width="0.2"/>
<path d="M8.25363 11.3187H7.37148C7.02512 11.3187 6.73828 11.5625 6.73828 11.8672V16.9812C6.73828 17.2812 7.0197 17.5297 7.37148 17.5297H8.25363C8.6 17.5297 8.88683 17.2859 8.88683 16.9812V11.8625C8.88683 11.5625 8.6 11.3187 8.25363 11.3187ZM8.02092 16.775H7.60961V12.0687H8.02092V16.775Z" fill="black" stroke="black" stroke-width="0.2"/>
<circle cx="17.5992" cy="18.1" r="5.9" fill="white" stroke="black"/>
<path d="M20.4288 20.3066C20.2979 20.3185 20.1821 20.222 20.1701 20.0911L20.1386 19.7451C19.6034 20.5856 18.6744 21.1473 17.598 21.1473C16.4399 21.1473 15.4194 20.4864 14.9128 19.4945C14.853 19.3774 14.8995 19.234 15.0166 19.1741C15.1337 19.1143 15.2771 19.1608 15.3369 19.2779C15.7656 20.1174 16.6266 20.6712 17.598 20.6712C18.4833 20.6712 19.2823 20.2101 19.7401 19.4879L19.4006 19.7303C19.2936 19.8067 19.1449 19.7819 19.0685 19.6749C18.9921 19.5679 19.0169 19.4193 19.1239 19.3428L20.1533 18.6076C20.3041 18.5001 20.5122 18.5986 20.5287 18.7798L20.6443 20.0479C20.6563 20.1788 20.5598 20.2946 20.4288 20.3066Z" fill="black" stroke="black" stroke-width="0.1"/>
<path d="M20.1795 17.0258C20.0624 17.0855 19.919 17.0391 19.8592 16.922C19.4305 16.0825 18.5695 15.5287 17.5981 15.5287C16.7128 15.5287 15.9138 15.9898 15.456 16.712L15.7955 16.4696C15.9025 16.3932 16.0512 16.418 16.1276 16.525C16.204 16.632 16.1792 16.7806 16.0722 16.8571L15.0428 17.5923C14.8938 17.6987 14.684 17.6032 14.6674 17.4201L14.5518 16.152C14.5398 16.0211 14.6363 15.9053 14.7673 15.8933C14.8984 15.8814 15.014 15.978 15.026 16.1088L15.0575 16.4548C15.5927 15.6143 16.5217 15.0526 17.5981 15.0526C18.7561 15.0526 19.7767 15.7135 20.2833 16.7054C20.3431 16.8225 20.2966 16.9659 20.1795 17.0258Z" fill="black" stroke="black" stroke-width="0.1"/>
</g>
<defs>
<clipPath id="clip0_6754_53287">
<rect width="24" height="24" fill="white" transform="translate(0 0.5)"/>
</clipPath>
</defs>
</svg>
