<svg width="48" height="48" viewBox="0 0 48 48" fill="none" xmlns="http://www.w3.org/2000/svg">
<path d="M30.0004 45.5C29.4604 45.5 28.9604 45.2 28.7004 44.74C28.4404 44.26 28.4404 43.7 28.7204 43.22L30.8204 39.72C31.2404 39.02 32.1604 38.78 32.8804 39.2C33.6004 39.62 33.8204 40.54 33.4004 41.26L32.8604 42.16C38.3804 40.86 42.5204 35.9 42.5204 29.98C42.5204 29.16 43.2004 28.48 44.0204 28.48C44.8404 28.48 45.5204 29.16 45.5204 29.98C45.5004 38.54 38.5404 45.5 30.0004 45.5Z" fill="black"/>
<path d="M4 19.5C3.18 19.5 2.5 18.82 2.5 18C2.5 9.46 9.46 2.5 18 2.5C18.54 2.5 19.04 2.8 19.3 3.26C19.56 3.74 19.56 4.3 19.28 4.78L17.18 8.28C16.76 8.98 15.84 9.22 15.12 8.78C14.42 8.36 14.18 7.44 14.62 6.72L15.16 5.82C9.62 7.12 5.5 12.08 5.5 18C5.5 18.82 4.82 19.5 4 19.5Z" fill="black"/>
<path d="M32.8003 16.42L25.2803 12.36C24.4803 11.94 23.5403 11.94 22.7403 12.36L15.2003 16.42C14.6603 16.72 14.3203 17.3 14.3203 17.94C14.3203 18.6 14.6603 19.18 15.2003 19.48L22.7203 23.54C23.1203 23.76 23.5603 23.86 24.0003 23.86C24.4403 23.86 24.8803 23.76 25.2803 23.54L32.8003 19.48C33.3403 19.18 33.6803 18.6 33.6803 17.94C33.6803 17.3 33.3403 16.72 32.8003 16.42Z" fill="#E89806"/>
<path d="M21.48 24.94L14.48 21.44C13.94 21.18 13.32 21.2 12.8 21.52C12.3 21.84 12 22.38 12 22.98V29.6C12 30.74 12.64 31.78 13.66 32.28L20.66 35.78C20.9 35.9 21.16 35.96 21.44 35.96C21.76 35.96 22.06 35.88 22.34 35.7C22.86 35.38 23.16 34.84 23.16 34.24V27.62C23.14 26.48 22.52 25.46 21.48 24.94Z" fill="#E89806"/>
<path d="M35.1838 21.52C34.6637 21.2 34.0437 21.18 33.5037 21.44L26.5037 24.94C25.4837 25.46 24.8438 26.48 24.8438 27.62V34.24C24.8438 34.84 25.1437 35.38 25.6637 35.7C25.9437 35.88 26.2437 35.96 26.5637 35.96C26.8237 35.96 27.0838 35.9 27.3438 35.78L34.3438 32.28C35.3638 31.76 36.0037 30.74 36.0037 29.6V22.98C36.0037 22.38 35.7038 21.84 35.1838 21.52Z" fill="#E89806"/>
</svg>
