<svg xmlns="http://www.w3.org/2000/svg" viewBox="0 0 400 1200">
  <!-- Форма серфборду -->
  <defs>
    <clipPath id="boardShape">
      <path d="M200,20 C260,100 360,400 200,1180 C40,400 140,100 200,20 Z" />
    </clipPath>
  </defs>

  <!-- Чорна дошка -->
  <path d="M200,20 C260,100 360,400 200,1180 C40,400 140,100 200,20 Z" fill="black" />

  <!-- Деревʼяна вставка (2/3 довжини, по формі) -->
  <path d="M200,100 C250,200 320,600 200,1000 C80,600 150,200 200,100 Z" fill="#c9a36b" stroke="none" />

  <!-- Орнаментальна рамка навколо вставки -->
  <path d="M200,100 C250,200 320,600 200,1000 C80,600 150,200 200,100 Z" fill="none" stroke="black" stroke-dasharray="10,5" stroke-width="4" />

  <!-- Тло з орнаментом (тут спрощений патерн, символізує вишивку) -->
  <g clip-path="url(#boardShape)">
    <g transform="translate(80,200) scale(0.6)">
      <!-- Використовуємо надісланий орнамент як патерн (тут умовне спрощене відтворення) -->
      <rect x="0" y="0" width="240" height="600" fill="url(#patternOrnament)" />
    </g>
  </g>

  <!-- Визначення патерну орнаменту -->
  <defs>
    <pattern id="patternOrnament" patternUnits="userSpaceOnUse" width="120" height="120">
      <polygon points="60,10 100,60 60,110 20,60" fill="red" />
      <line x1="20" y1="60" x2="100" y2="60" stroke="black" stroke-width="4" />
    </pattern>
  </defs>
</svg>
