<svg width="38" height="38" viewBox="0 0 38 38" fill="none" xmlns="http://www.w3.org/2000/svg">
<path d="M19.0624 0.351562C15.3778 0.351562 11.776 1.44417 8.7124 3.49121C5.64878 5.53825 3.26099 8.44779 1.85096 11.8519C0.440933 15.256 0.0720059 19.0018 0.790831 22.6156C1.50966 26.2293 3.28395 29.5488 5.88934 32.1542C8.49473 34.7596 11.8142 36.5339 15.428 37.2527C19.0418 37.9715 22.7875 37.6026 26.1917 36.1926C29.5958 34.7826 32.5053 32.3948 34.5523 29.3311C36.5994 26.2675 37.692 22.6657 37.692 18.9811C37.692 16.5347 37.2101 14.1121 36.2739 11.8519C35.3377 9.59165 33.9654 7.53795 32.2355 5.80803C30.5056 4.07812 28.4519 2.70588 26.1917 1.76965C23.9314 0.83343 21.5089 0.351563 19.0624 0.351562ZM29.6366 15.6967L18.4588 25.943C18.1049 26.2675 17.6394 26.4428 17.1594 26.4324C16.6793 26.422 16.2219 26.2266 15.8824 25.8871L10.2935 20.2982C10.1156 20.1264 9.97364 19.9208 9.876 19.6935C9.77837 19.4662 9.72698 19.2218 9.72483 18.9744C9.72268 18.7271 9.76981 18.4817 9.86348 18.2528C9.95715 18.0238 10.0955 17.8158 10.2704 17.6409C10.4453 17.466 10.6533 17.3277 10.8823 17.234C11.1112 17.1403 11.3565 17.0932 11.6039 17.0953C11.8513 17.0975 12.0957 17.1489 12.323 17.2465C12.5503 17.3442 12.7559 17.4861 12.9277 17.664L17.2554 21.9917L27.1178 12.9507C27.482 12.6167 27.9639 12.4411 28.4576 12.4624C28.9512 12.4837 29.4162 12.7002 29.7502 13.0644C30.0842 13.4285 30.2599 13.9104 30.2386 14.4041C30.2173 14.8977 30.0007 15.3627 29.6366 15.6967Z" fill="#525252"/>
</svg>
