<svg width="24" height="25" viewBox="0 0 24 25" fill="none" xmlns="http://www.w3.org/2000/svg">
<g clip-path="url(#clip0_6755_53354)">
<path d="M22.1628 2.3439C22.1567 2.33781 22.1504 2.33204 22.1443 2.32595C22.1437 2.32534 22.1431 2.32473 22.1424 2.32412C19.0461 -0.743387 13.379 0.181505 9.34063 4.21993C8.73795 4.82261 8.19411 5.47234 7.71781 6.15541C5.30703 5.79803 3.18513 6.39836 1.72778 7.85575C1.72207 7.86147 1.71667 7.86743 1.711 7.87319C1.70988 7.87436 1.70871 7.87549 1.70763 7.87671C-1.21283 10.8301 -0.286486 16.7783 3.71632 20.7811C7.76933 24.8341 13.7253 25.6859 16.6416 22.7696C16.6452 22.7661 16.6486 22.7623 16.6522 22.7587C16.654 22.7567 16.656 22.7549 16.6578 22.7529C18.1032 21.2961 18.698 19.1812 18.342 16.7796C19.025 16.3033 19.6748 15.7595 20.2775 15.1567C24.3369 11.0973 25.2453 5.42636 22.1628 2.3439ZM10.3349 5.2142C13.4619 2.08716 17.5774 1.09749 20.1985 2.59787L20.1668 2.6087C18.606 3.14007 17.2243 4.05742 16.1712 5.26169C15.1698 6.40666 14.465 7.81263 14.1227 9.34005C12.6406 7.99839 10.9469 7.01847 9.212 6.49267C9.55447 6.04684 9.92999 5.61906 10.3349 5.2142ZM4.71054 19.7868C1.7628 16.8391 0.594485 12.5502 1.99361 9.85484C3.07394 13.0248 5.78548 15.3983 9.07072 16.0494C11.9003 16.6102 14.2176 18.6609 15.1182 21.4014L15.3333 22.0561C12.8495 24.0488 8.02025 23.0966 4.71054 19.7868ZM16.3921 20.7846C15.2927 17.6523 12.609 15.3172 9.344 14.6701C6.54879 14.1161 4.24193 12.0962 3.32355 9.39869L3.03902 8.56291C5.62024 6.44013 10.2983 7.47803 13.6588 10.8385C15.2853 12.4651 16.5511 14.575 16.9277 16.8343C17.1796 18.346 16.9894 19.7076 16.3921 20.7846ZM18.0046 15.2854C17.4964 13.6084 16.5637 11.9701 15.2903 10.524C15.352 10.3005 15.4066 10.0744 15.4516 9.84776C16.0119 7.02058 17.8957 4.86719 20.6199 3.93976L21.4564 3.655C23.5723 6.20983 22.6706 10.775 19.2831 14.1626C18.8783 14.5673 18.4504 14.9429 18.0046 15.2854Z" fill="black"/>
</g>
<defs>
<clipPath id="clip0_6755_53354">
<rect width="24" height="24" fill="white" transform="translate(0 0.5)"/>
</clipPath>
</defs>
</svg>
