<svg width="61" height="48" viewBox="0 0 61 48" fill="none" xmlns="http://www.w3.org/2000/svg">
<path d="M9.08984 32.6289C9.8125 36.5938 12.1367 38.2148 16.1797 37.5117L16.5898 37.4531V37.6289C16.5898 41.6719 18.6211 43.6836 22.7227 43.6836H49.4023C53.4648 43.6836 55.5156 41.6523 55.5156 37.6289V19.2109C55.5156 15.1875 53.4648 13.1562 49.4023 13.1562H44.9883L44.0117 7.76562C43.3086 3.80078 40.9648 2.16016 36.9414 2.86328L10.8672 7.45312C6.84375 8.17578 5.18359 10.5195 5.88672 14.4844L9.08984 32.6289ZM12.1562 31.9258L9.01172 14.1133C8.66016 12.1016 9.53906 10.8711 11.4727 10.5391L37.4297 5.96875C39.3242 5.63672 40.5938 6.45703 40.9648 8.46875L41.8047 13.1562H22.7227C18.6211 13.1562 16.5898 15.1875 16.5898 19.2109V34.25L15.6914 34.4062C13.7578 34.7578 12.5078 33.918 12.1562 31.9258ZM19.7344 19.3867C19.7344 17.3555 20.8086 16.3008 22.7617 16.3008H49.3438C51.2773 16.3008 52.3711 17.3555 52.3711 19.3867V34.6016L45.0859 27.707C44.3242 27.0039 43.3867 26.6523 42.4297 26.6523C41.4727 26.6523 40.6133 26.9648 39.793 27.6875L31.9023 34.6797L28.7773 31.8477C28.0156 31.1641 27.2344 30.8516 26.3945 30.8516C25.6328 30.8516 24.9102 31.1641 24.1484 31.8086L19.7344 35.6562V19.3867ZM30.4961 28.1367C32.7812 28.1367 34.6367 26.2422 34.6367 23.957C34.6367 21.7109 32.7812 19.8164 30.4961 19.8164C28.2109 19.8164 26.375 21.7109 26.375 23.957C26.375 26.2422 28.2109 28.1367 30.4961 28.1367Z" fill="#007862" fill-opacity="0.2"/>
<path d="M49.4023 11.6562C51.6648 11.6562 53.6384 12.2231 55.0381 13.6094C56.4403 14.9982 57.0156 16.9608 57.0156 19.2109V37.6289C57.0156 39.8791 56.4403 41.8416 55.0381 43.2305C53.6384 44.6168 51.6648 45.1836 49.4023 45.1836H22.7227C20.448 45.1836 18.4674 44.6253 17.0645 43.2393C15.6581 41.8497 15.0898 39.8834 15.0898 37.6289V19.2109C15.0898 16.9645 15.6585 15.0001 17.0625 13.6094C18.464 12.2213 20.4443 11.6563 22.7227 11.6562H49.4023ZM22.7617 17.8008C22.0457 17.8008 21.7269 17.9904 21.5811 18.1377C21.4331 18.2872 21.2344 18.624 21.2344 19.3867V32.3584L23.1631 30.6777L23.1709 30.6709L23.1797 30.6631C24.1198 29.8676 25.1736 29.3516 26.3945 29.3516C27.5801 29.3516 28.6448 29.7809 29.5918 30.5693L29.7793 30.7314L29.7852 30.7363L31.9131 32.665L38.7979 26.5645L38.8018 26.5615C39.8848 25.6075 41.0933 25.1524 42.4297 25.1523C43.6809 25.1523 44.902 25.5867 45.9053 26.4307L46.1035 26.6045L46.1104 26.6113L46.1172 26.6172L50.8711 31.1152V19.3867C50.8711 18.6312 50.6712 18.2932 50.5195 18.1406C50.3686 17.989 50.0464 17.8008 49.3438 17.8008H22.7617ZM30.4961 18.3164C33.6188 18.3164 36.1367 20.8917 36.1367 23.957C36.1367 27.0522 33.6279 29.6367 30.4961 29.6367C27.3551 29.6367 24.875 27.0429 24.875 23.957C24.875 20.901 27.3642 18.3165 30.4961 18.3164Z" fill="#007862" stroke="#F6F8F9" stroke-width="3"/>
</svg>
