<svg width="24" height="25" viewBox="0 0 24 25" fill="none" xmlns="http://www.w3.org/2000/svg">
<g clip-path="url(#clip0_6754_53140)">
<path d="M19.8545 2.80383C19.9492 2.70909 20.1133 2.70909 20.208 2.80383C20.3023 2.89853 20.3023 3.06171 20.208 3.15637L4.35742 19.007C4.30619 19.058 4.24509 19.0802 4.18066 19.0802C4.11642 19.0801 4.05598 19.0579 4.00488 19.007C3.91014 18.9122 3.91014 18.7482 4.00488 18.6534L19.8545 2.80383Z" fill="black" stroke="black"/>
<path d="M5.25031 14.25C4.96031 14.25 4.69031 14.08 4.56031 13.8C4.07031 12.68 3.82031 11.54 3.82031 10.4C3.82031 7.68001 5.00031 5.17001 7.05031 3.51001C8.97031 1.97001 11.3503 1.41001 13.7503 1.94001C15.3303 2.29001 16.7703 3.12001 17.9003 4.34001C18.1803 4.64001 18.1603 5.12001 17.8603 5.40001C17.5603 5.68001 17.0803 5.66001 16.8003 5.36001C15.8703 4.36001 14.7103 3.68001 13.4303 3.40001C11.4803 2.98001 9.55031 3.43001 8.00031 4.68001C6.30031 6.05001 5.33031 8.13001 5.33031 10.4C5.33031 11.33 5.54031 12.27 5.94031 13.2C6.11031 13.58 5.93031 14.02 5.55031 14.19C5.45031 14.23 5.35031 14.25 5.25031 14.25Z" fill="black"/>
<path d="M14.6116 20.25H9.42156C9.03156 20.25 8.48156 20.21 8.11156 19.83C7.75156 19.46 7.76156 18.99 7.77156 18.68V17.77C7.37156 17.49 6.99156 17.1699 6.63156 16.8099C6.34156 16.5199 6.34156 16.04 6.63156 15.75C6.92156 15.46 7.40156 15.46 7.69156 15.75C8.08156 16.13 8.49156 16.47 8.92156 16.75C9.13156 16.89 9.27156 17.1299 9.27156 17.3799V18.7199C9.27156 18.7299 9.27156 18.74 9.27156 18.75C9.31156 18.75 9.36156 18.75 9.43156 18.75H14.6216C14.6916 18.75 14.7416 18.75 14.7816 18.74C14.7816 18.7 14.7816 18.6599 14.7816 18.6299V17.37C14.7816 17.11 14.9116 16.88 15.1316 16.74C17.6016 15.16 19.5016 11.66 18.3616 8.02995C18.2416 7.62995 18.4616 7.20995 18.8516 7.08995C19.2416 6.95995 19.6716 7.18995 19.7916 7.57995C21.1016 11.76 19.0616 15.79 16.2816 17.77V18.54C16.2916 18.85 16.3016 19.3799 15.8916 19.7999C15.5816 20.0999 15.1616 20.25 14.6116 20.25Z" fill="black"/>
<path d="M15.4993 23.2499C15.4293 23.2499 15.3593 23.2399 15.2893 23.2199C13.1293 22.5999 10.8593 22.5999 8.69928 23.2199C8.29928 23.3299 7.88928 23.0999 7.76928 22.6999C7.64928 22.2999 7.88928 21.8899 8.28928 21.7699C10.7093 21.0799 13.2793 21.0799 15.6993 21.7699C16.0993 21.8799 16.3293 22.2999 16.2193 22.6999C16.1293 23.0399 15.8293 23.2499 15.4993 23.2499Z" fill="black"/>
</g>
<defs>
<clipPath id="clip0_6754_53140">
<rect width="24" height="24" fill="white" transform="translate(0 0.5)"/>
</clipPath>
</defs>
</svg>
