<svg width="48" height="48" viewBox="0 0 48 48" fill="none" xmlns="http://www.w3.org/2000/svg">
<path d="M23.3185 1.05375C26.7673 0.586247 27.9535 4.1525 31.0773 4.49C33.3798 4.73875 35.5798 4.135 37.2135 6.225C38.226 7.52 38.2098 9.6325 38.741 11.1562C39.581 13.5662 42.7723 14.4262 43.2835 17.1025C43.6998 19.28 42.1473 20.7975 41.4173 22.6737C40.5098 25.0087 41.9885 27.2612 41.3348 29.5162C40.601 32.0512 38.0785 32.2937 36.056 33.3237C33.2885 34.7337 33.2173 38.99 29.5735 39.2037C27.8935 39.3025 26.1298 38.1275 24.516 37.9862C21.8198 37.75 19.5798 40.0837 16.8735 38.7837C14.8748 37.8225 14.3323 35.0662 12.6973 33.7812C11.1885 32.5962 8.7023 32.49 7.4048 30.9237C5.31605 28.4025 7.6348 25.4662 6.6048 22.74C5.8848 20.835 4.2398 19.2187 4.7073 17.0062C5.1048 15.1187 6.9673 14.1087 8.2048 12.825C10.2635 10.6912 9.1298 7.27875 11.6298 5.39C13.4835 3.99 16.3998 5.03875 18.4635 4.07C20.0523 3.325 21.4998 1.30125 23.3173 1.055L23.3185 1.05375ZM22.8535 6.85875C13.3048 7.58625 7.7148 18.1725 12.356 26.5425C17.2498 35.365 29.9485 35.705 35.286 27.1262C41.0973 17.7875 33.761 6.02625 22.8535 6.8575V6.85875Z" fill="#E89806"/>
<path d="M35.6237 35.93C35.8737 36.9275 39.2787 43.3075 39.175 43.7238C39.1562 43.7975 39.0663 43.9013 38.9975 43.9338C38.595 44.1275 35.2975 43.165 34.5938 43.2713L32.3438 47.02L32.03 47.055L29.0625 40.7025C30.9037 40.7213 32.4863 40.0013 33.6525 38.5938C34.265 37.855 34.6987 36.8113 35.3037 36.125C35.3962 36.02 35.4475 35.8938 35.6225 35.9313L35.6237 35.93Z" fill="#010101"/>
<path d="M19.0281 40.7025L16.0619 47.055L15.7469 47.0187L13.5794 43.2388C12.0781 43.4 10.5806 43.8325 9.09312 43.9338L8.92188 43.7313L12.4669 35.9313C13.2306 36.6925 13.6519 37.7638 14.3431 38.595C15.5169 40.005 17.1781 40.7575 19.0269 40.7038L19.0281 40.7025Z" fill="#010101"/>
<path d="M23.042 8.355C32.4082 7.6175 38.8982 17.625 34.292 25.8525C30.077 33.3813 19.337 33.9488 14.3595 26.8838C9.1107 19.4338 13.9982 9.0675 23.042 8.35625V8.355ZM29.1295 14.8062C28.8545 14.8537 28.527 15.0263 28.3082 15.2025L22.5257 21.0425L22.2595 20.965C21.3682 20.2675 19.8832 18.1125 18.787 17.9737C17.047 17.7537 16.1657 19.625 17.1995 20.9613C17.642 21.5325 21.152 25.0112 21.6332 25.2375C22.3245 25.5625 22.9995 25.4875 23.5795 24.985C25.687 22.5525 28.6307 20.365 30.657 17.92C30.8607 17.675 31.1607 17.29 31.2107 16.9762C31.4232 15.64 30.4995 14.5712 29.1295 14.8062Z" fill="#E89806"/>
<path d="M29.1298 14.8062C30.4998 14.5725 31.4236 15.6412 31.2111 16.9762C31.1611 17.29 30.8611 17.675 30.6573 17.92C28.6311 20.365 25.6873 22.5512 23.5798 24.985C23.0011 25.4875 22.3248 25.5637 21.6336 25.2375C21.1523 25.0112 17.6423 21.5325 17.1998 20.9612C16.1661 19.625 17.0473 17.7525 18.7873 17.9737C19.8848 18.1125 21.3686 20.2675 22.2598 20.965L22.5261 21.0425L28.3086 15.2025C28.5273 15.0262 28.8536 14.8525 29.1298 14.8062Z" fill="#FAFAFA"/>
</svg>
