<svg width="20" height="20" viewBox="0 0 20 20" fill="none" xmlns="http://www.w3.org/2000/svg">
<path d="M18.3312 14.1002V16.6002C18.3322 16.8322 18.2846 17.062 18.1917 17.2746C18.0987 17.4873 17.9623 17.6782 17.7913 17.835C17.6203 17.9919 17.4184 18.1114 17.1985 18.1858C16.9787 18.2601 16.7457 18.2877 16.5146 18.2668C13.9503 17.9882 11.4871 17.1119 9.32291 15.7085C7.30943 14.429 5.60236 12.722 4.32291 10.7085C2.91456 8.5345 2.03811 6.05932 1.76458 3.4835C1.74375 3.25305 1.77114 3.0208 1.84499 2.80152C1.91885 2.58224 2.03755 2.38074 2.19355 2.20985C2.34954 2.03896 2.53941 1.90242 2.75107 1.80893C2.96272 1.71544 3.19153 1.66705 3.42291 1.66683H5.92291C6.32733 1.66285 6.7194 1.80606 7.02604 2.06977C7.33269 2.33348 7.53297 2.6997 7.58958 3.10016C7.6951 3.90022 7.89078 4.68577 8.17291 5.44183C8.28503 5.7401 8.30929 6.06426 8.24283 6.3759C8.17637 6.68753 8.02196 6.97359 7.79791 7.20016L6.73958 8.2585C7.92587 10.3448 9.65329 12.0722 11.7396 13.2585L12.7979 12.2002C13.0245 11.9761 13.3105 11.8217 13.6222 11.7552C13.9338 11.6888 14.258 11.713 14.5562 11.8252C15.3123 12.1073 16.0979 12.303 16.8979 12.4085C17.3027 12.4656 17.6724 12.6695 17.9367 12.9814C18.201 13.2933 18.3414 13.6915 18.3312 14.1002Z" fill="#E89806"/>
</svg>
