<svg width="48" height="48" viewBox="0 0 48 48" fill="none" xmlns="http://www.w3.org/2000/svg">
<path d="M35.2009 10.62L23.9009 4.54C22.7009 3.9 21.2809 3.9 20.0809 4.54L8.80094 10.62C7.98094 11.08 7.46094 11.96 7.46094 12.92C7.46094 13.9 7.96094 14.78 8.80094 15.22L20.1009 21.3C20.7009 21.62 21.3609 21.78 22.0009 21.78C22.6409 21.78 23.3209 21.62 23.9009 21.3L35.2009 15.22C36.0209 14.78 36.5409 13.9 36.5409 12.92C36.5409 11.96 36.0209 11.08 35.2009 10.62Z" fill="#E89806"/>
<path d="M18.24 23.42L7.74 18.18C6.92 17.76 6 17.82 5.22 18.28C4.46 18.76 4 19.58 4 20.48V30.4C4 32.12 4.96 33.66 6.5 34.44L17 39.68C17.36 39.86 17.76 39.96 18.16 39.96C18.62 39.96 19.1 39.82 19.52 39.58C20.28 39.1 20.74 38.28 20.74 37.38V27.46C20.72 25.74 19.76 24.2 18.24 23.42Z" fill="#E89806"/>
<path d="M40.0012 20.48V25.4C39.0412 25.12 38.0212 25 37.0012 25C34.2812 25 31.6213 25.94 29.5212 27.62C26.6412 29.88 25.0012 33.3 25.0012 37C25.0012 37.98 25.1212 38.96 25.3812 39.9C25.0812 39.86 24.7812 39.74 24.5012 39.56C23.7412 39.1 23.2812 38.28 23.2812 37.38V27.46C23.2812 25.74 24.2412 24.2 25.7612 23.42L36.2612 18.18C37.0812 17.76 38.0012 17.82 38.7812 18.28C39.5412 18.76 40.0012 19.58 40.0012 20.48Z" fill="#E89806"/>
<path d="M43.96 31.3C42.32 29.28 39.82 28 37 28C34.88 28 32.92 28.74 31.38 29.98C29.3 31.62 28 34.16 28 37C28 39.82 29.28 42.32 31.3 43.96C32.84 45.24 34.84 46 37 46C39.28 46 41.34 45.14 42.94 43.76C44.8 42.1 46 39.7 46 37C46 34.84 45.24 32.84 43.96 31.3ZM39.06 37.56C39.06 38.08 38.78 38.58 38.34 38.84L35.52 40.52C35.28 40.66 35.02 40.74 34.74 40.74C34.24 40.74 33.74 40.48 33.46 40.02C33.04 39.3 33.26 38.38 33.98 37.96L36.06 36.72V34.2C36.06 33.38 36.74 32.7 37.56 32.7C38.38 32.7 39.06 33.38 39.06 34.2V37.56Z" fill="black"/>
</svg>
